<svg id="Layer_1" data-name="Layer 1" xmlns="http://www.w3.org/2000/svg" viewBox="0 0 96.19 41.68"><defs><style>.cls-1{fill:#009fe3;stroke:#1d1d1b;}.cls-1,.cls-2,.cls-3{stroke-miterlimit:10;stroke-width:3px;}.cls-2{fill:#ffed00;stroke:#ffed00;}.cls-3{fill:#fff;stroke:#fff;}</style></defs><rect class="cls-1" x="1.5" y="1.5" width="93.19" height="38.68" rx="19.34"/><circle class="cls-2" cx="74.9" cy="20.84" r="15.57"/><path class="cls-3" d="M29.63,26.05H27.86a2.42,2.42,0,0,0,.06-.47v-.94A3.67,3.67,0,0,0,24,21.26a3.87,3.87,0,0,0-3.66,2.3,3.4,3.4,0,0,0-1.25-.25h0a2.84,2.84,0,0,0-3,2.62v.6a3.22,3.22,0,0,0-1.86,2.82,3.57,3.57,0,0,0,3.78,3.3H29.63a3.57,3.57,0,0,0,3.78-3.3A3.58,3.58,0,0,0,29.63,26.05Z"/><path class="cls-3" d="M47,12.87H45.7a2,2,0,0,0,0-.35v-.71a2.76,2.76,0,0,0-2.92-2.55A2.92,2.92,0,0,0,40.06,11a2.43,2.43,0,0,0-.94-.19h0a2.13,2.13,0,0,0-2.26,2v.45a2.44,2.44,0,0,0-1.4,2.13,2.69,2.69,0,0,0,2.85,2.48H47a2.69,2.69,0,0,0,2.85-2.48A2.69,2.69,0,0,0,47,12.87Z"/></svg>