<svg id="Layer_1" data-name="Layer 1" xmlns="http://www.w3.org/2000/svg" viewBox="0 0 96.19 41.68"><defs><style>.cls-1{fill:#1d2b3f;stroke:#1d1d1b;}.cls-1,.cls-2,.cls-3,.cls-4,.cls-5{stroke-miterlimit:10;}.cls-1,.cls-2,.cls-3,.cls-4{stroke-width:3px;}.cls-2{fill:#c6c6c6;stroke:#c6c6c6;}.cls-3{fill:#9d9d9c;stroke:#9d9d9c;}.cls-4,.cls-5{fill:#fff;stroke:#fff;}.cls-5{stroke-width:2px;}</style></defs><rect class="cls-1" x="1.5" y="1.5" width="93.19" height="38.68" rx="19.34"/><circle class="cls-2" cx="21.22" cy="20.84" r="15.57"/><circle class="cls-3" cx="14.8" cy="22.35" r="3.49"/><circle class="cls-3" cx="27.65" cy="26.1" r="1.15"/><circle class="cls-3" cx="29.63" cy="16.14" r="0.49"/><polygon class="cls-4" points="58.12 28.9 57.13 27.09 55.31 26.1 57.13 25.1 58.12 23.29 59.11 25.1 60.93 26.1 59.11 27.09 58.12 28.9"/><polygon class="cls-4" points="74.27 19.2 74.03 18.78 73.61 18.54 74.03 18.31 74.27 17.89 74.5 18.31 74.92 18.54 74.5 18.78 74.27 19.2"/><polygon class="cls-5" points="64.79 13.78 64.74 13.68 64.64 13.63 64.74 13.57 64.79 13.47 64.85 13.57 64.95 13.63 64.85 13.68 64.79 13.78"/></svg>